<svg width="24" height="24" viewBox="0 0 24 24" fill="none" xmlns="http://www.w3.org/2000/svg">
<path d="M7.24229 11.0827C7.6908 9.40909 9.4111 7.68878 11.0847 7.24027L21.5187 4.44407C23.1923 3.99557 24.1854 4.9887 23.7369 6.6623L20.9407 17.0963C20.4922 18.7699 18.7719 20.4902 17.0983 20.9387L6.66432 23.7349C4.99071 24.1834 3.99758 23.1903 4.44609 21.5167L7.24229 11.0827Z" fill="#FBD36A"/>
<path d="M3.05936 6.89959C3.50787 5.22598 5.22818 3.50568 6.90178 3.05717L17.3358 0.260966C19.0094 -0.187541 20.0025 0.805593 19.554 2.4792L16.7578 12.9132C16.3093 14.5868 14.589 16.3071 12.9154 16.7556L2.48139 19.5518C0.807793 20.0003 -0.185343 19.0072 0.263165 17.3336L3.05936 6.89959Z" fill="#A67700"/>
</svg>
